<svg xmlns="http://www.w3.org/2000/svg" viewBox="0 0 32 32">
  <defs>
    <clipPath id="ball">
      <circle cx="16" cy="16" r="14.25"/>
    </clipPath>
  </defs>

  <g clip-path="url(#ball)">
    <circle cx="16" cy="16" r="14.25" fill="#f8fafc"/>
    <path d="M25.4 4.8C29 7.4 31 11.4 31 16c0 7.9-6.5 14.3-14.4 14.3-4.3 0-8.1-1.9-10.7-4.8 2.5 1.5 5.3 2.3 8.4 2.3 8.7 0 15.7-7 15.7-15.7 0-2.7-.7-5.2-1.9-7.4Z" fill="#cbd5e1"/>
    <path d="M4.2 12.4C5.7 7.1 10.5 3 16.3 2.2c-4.5 1.6-7.8 4.9-9.4 9.4Z" fill="#ffffff"/>

    <g stroke="#475569" stroke-width="0.72" stroke-linejoin="round">
      <path d="M16 8.8 22.2 13.3 19.8 20.5 12.2 20.5 9.8 13.3Z" fill="#111827"/>

      <path d="M16 8.8 12.1 5.8 7.7 8.3 6.7 13.2 9.8 13.3Z" fill="#ffffff"/>
      <path d="M16 8.8 19.9 5.8 24.3 8.3 25.3 13.2 22.2 13.3Z" fill="#eef2f7"/>
      <path d="M22.2 13.3 25.3 13.2 27.4 17.9 24 22 19.8 20.5Z" fill="#e5e7eb"/>
      <path d="M19.8 20.5 24 22 22.5 26.9 16 29.4 16 25.2Z" fill="#dbe1e8"/>
      <path d="M12.2 20.5 16 25.2 16 29.4 9.5 26.9 8 22Z" fill="#f1f5f9"/>
      <path d="M9.8 13.3 12.2 20.5 8 22 4.6 17.9 6.7 13.2Z" fill="#ffffff"/>

      <path d="M12.1 5.8 16 2 19.9 5.8 16 8.8Z" fill="#111827"/>
      <path d="M24.3 8.3 29 9.3 30.1 15.3 27.4 17.9 25.3 13.2Z" fill="#111827"/>
      <path d="M24 22 27.6 21.2 27 26.1 22.5 28.9 22.5 26.9Z" fill="#111827"/>
      <path d="M9.5 26.9 9.5 28.9 5 26.1 4.4 21.2 8 22Z" fill="#111827"/>
      <path d="M6.7 13.2 4.6 17.9 1.9 15.3 3 9.3 7.7 8.3Z" fill="#111827"/>
    </g>

    <path d="M12.4 12.7 15.1 10.8 16.1 10.8 12.3 13.7Z" fill="#374151"/>
    <path d="M8.8 9.1C10.3 6.6 12.6 5 14.4 4.4" fill="none" stroke="#ffffff" stroke-width="0.85" stroke-linecap="round"/>
  </g>

  <circle cx="16" cy="16" r="14.25" fill="none" stroke="#0f172a" stroke-width="1.15"/>
</svg>
