<svg xmlns="http://www.w3.org/2000/svg" viewBox="0 0 32 32">
  <circle cx="16" cy="16" r="14" fill="#ffffff" stroke="#111827" stroke-width="1.4"/>

  <g fill="#111827" stroke="#111827" stroke-linejoin="round">
    <path d="M16 10.1 21.3 13.9 19.3 20.1 12.7 20.1 10.7 13.9Z"/>
    <path d="M16 2 19.6 4.7 18.2 9 13.8 9 12.4 4.7Z"/>
    <path d="M28.6 10.2 30 14.5 26.4 17.1 22.8 14.5 24.2 10.2Z"/>
    <path d="M23.9 25.8 20.2 28.5 16.7 25.9 18.1 21.7 22.5 21.7Z"/>
    <path d="M8.1 25.8 9.5 21.7 13.9 21.7 15.3 25.9 11.8 28.5Z"/>
    <path d="M3.4 10.2 7.8 10.2 9.2 14.5 5.6 17.1 2 14.5Z"/>
  </g>

  <g fill="none" stroke="#111827" stroke-width="1.1" stroke-linecap="round">
    <path d="M13.8 9 12 12.1M18.2 9 20 12.1"/>
    <path d="M22.8 14.5 21.3 14.5M10.7 14.5 9.2 14.5"/>
    <path d="M19.3 20.1 20 22M12.7 20.1 12 22"/>
  </g>
</svg>
